<?xml version="1.0" encoding="UTF-8" standalone="no"?>
<svg
   xmlns:dc="http://purl.org/dc/elements/1.1/"
   xmlns:cc="http://creativecommons.org/ns#"
   xmlns:rdf="http://www.w3.org/1999/02/22-rdf-syntax-ns#"
   xmlns:svg="http://www.w3.org/2000/svg"
   xmlns="http://www.w3.org/2000/svg"
   xmlns:sodipodi="http://sodipodi.sourceforge.net/DTD/sodipodi-0.dtd"
   xmlns:inkscape="http://www.inkscape.org/namespaces/inkscape"
   viewBox="0 0 300 116.17515"
   height="116.17516"
   width="300"
   xml:space="preserve"
   version="1.1"
   id="svg2"
   inkscape:version="0.91 r"
   sodipodi:docname="Dalhousie_University_Wordmark_2014.svg"><sodipodi:namedview
     pagecolor="#ffffff"
     bordercolor="#666666"
     borderopacity="1"
     objecttolerance="10"
     gridtolerance="10"
     guidetolerance="10"
     inkscape:pageopacity="0"
     inkscape:pageshadow="2"
     inkscape:window-width="1215"
     inkscape:window-height="776"
     id="namedview50"
     showgrid="false"
     fit-margin-top="20"
     fit-margin-left="20"
     fit-margin-right="20"
     fit-margin-bottom="20"
     inkscape:zoom="0.38313234"
     inkscape:cx="196.71151"
     inkscape:cy="97.251246"
     inkscape:window-x="65"
     inkscape:window-y="24"
     inkscape:window-maximized="1"
     inkscape:current-layer="svg2" /><metadata
     id="metadata8"><rdf:RDF><cc:Work
         rdf:about=""><dc:format>image/svg+xml</dc:format><dc:type
           rdf:resource="http://purl.org/dc/dcmitype/StillImage" /><dc:title></dc:title></cc:Work></rdf:RDF></metadata><defs
     id="defs6" /><g
     id="g24"
     transform="matrix(0.61352762,0,0,-0.61352762,29.099228,44.328579)"><path
       inkscape:connector-curvature="0"
       d="m 0,0 c 0,-1.488 0.068,-2.842 0.41,-3.924 0.547,-1.624 3.828,-2.91 7.109,-2.91 10.525,0 18.043,7.985 18.043,20.57 0,14.55 -7.793,21.993 -21.462,21.993 -1.229,0 -2.802,-0.067 -4.1,-0.203 L 0,0 Z m -8.749,30.586 c 0,4.128 -0.135,5.347 -4.784,5.347 l -1.298,0 0,2.164 c 1.573,0 3.827,-0.135 6.492,-0.135 4.785,0 10.801,0.271 15.448,0.271 17.564,0 27.885,-9.405 27.885,-23.887 0,-6.97 -2.939,-13.33 -7.928,-17.594 -5.194,-4.398 -11.483,-6.361 -18.59,-6.361 -3.076,0 -8.544,0.677 -14.832,0.677 -2.188,0 -4.921,-0.135 -8.338,-0.271 l 0,2.166 c 5.33,0 5.945,0.812 5.945,4.872 l 0,32.751 z"
       style="fill:#231f20;fill-opacity:1;fill-rule:nonzero;stroke:none"
       id="path26" /></g><g
     id="g28"
     transform="matrix(0.61352762,0,0,-0.61352762,66.799708,25.480029)"><path
       inkscape:connector-curvature="0"
       d="m 0,0 -7.081,-19.624 13.984,0 L 0,0 Z m -22.869,-37.759 c 4.374,0 6.494,2.03 8.271,7.037 l 13.3,36.609 C 0.82,6.631 3.349,7.579 5.81,8.932 l 15.445,-42.631 c 1.094,-3.044 2.941,-3.992 6.358,-4.06 l 0,-2.165 c -3.007,0.135 -6.698,0.203 -9.502,0.203 -2.87,0 -6.491,-0.068 -10.866,-0.203 l 0,2.165 0.956,0 c 2.735,0 3.965,0.339 3.965,2.03 0,0.541 -0.205,1.557 -0.684,3.045 l -3.212,9.067 -16.717,0 -2.939,-8.322 c -0.547,-1.624 -0.889,-2.774 -0.889,-3.384 0,-1.894 1.709,-2.436 5.673,-2.436 l 0,-2.165 c -3.418,0.135 -7.108,0.203 -11.072,0.203 -1.23,0 -3.556,-0.068 -5.195,-0.203 l 0,2.165 z"
       style="fill:#231f20;fill-opacity:1;fill-rule:nonzero;stroke:none"
       id="path30" /></g><g
     id="g32"
     transform="matrix(0.61352762,0,0,-0.61352762,85.721078,48.646029)"><path
       inkscape:connector-curvature="0"
       d="m 0,0 c 5.33,0 6.014,0.812 6.014,4.872 l 0,32.751 c 0,4.331 -0.137,5.347 -5.468,5.347 L 0,42.97 0,45.134 C 2.46,45.134 4.237,45 5.467,45 c 7.108,0 12.302,0.067 15.446,0.134 l 0,-2.233 c -5.536,0 -6.151,-0.879 -6.151,-5.278 l 0,-30.45 c 0,-6.09 1.996,-6.429 9.036,-6.429 8.201,0 12.262,1.151 14.107,8.188 L 39.819,8.391 37.29,-2.436 c -1.914,0.27 -4.579,0.338 -7.996,0.338 -2.939,0 -7.424,-0.068 -11.456,-0.068 l -8.27,0 c -5.878,0 -9.022,0 -9.568,-0.27 L 0,0 Z"
       style="fill:#231f20;fill-opacity:1;fill-rule:nonzero;stroke:none"
       id="path34" /></g><g
     id="g36"
     transform="matrix(0.61352762,0,0,-0.61352762,112.49819,48.646029)"><path
       inkscape:connector-curvature="0"
       d="m 0,0 c 5.331,0 6.015,0.812 6.015,4.872 l 0,32.751 c 0,4.331 -0.138,5.347 -5.468,5.347 l -1.437,0 0,2.164 C 1.98,45 6.287,45 10.251,45 c 3.485,0 7.176,0 10.936,0.134 l 0,-2.164 -0.889,0 c -4.647,0 -5.4,-1.083 -5.4,-5.55 l 0,-12.924 24.277,0 0,13.127 c 0,4.331 -0.136,5.347 -5.467,5.347 l -0.547,0 0,2.164 C 36.032,45 39.518,45 43.48,45 c 3.008,0 6.7,0 10.937,0.134 l 0,-2.164 -0.889,0 c -4.647,0 -5.467,-1.083 -5.467,-5.55 l 0,-31.33 c 0,-4.804 0.341,-6.157 5.946,-6.157 l 0.41,0 0,-2.099 c -4.101,0.136 -7.792,0.271 -11.004,0.271 -3.007,0 -6.424,-0.067 -10.252,-0.271 l 0,2.166 c 5.331,0 6.014,0.812 6.014,4.872 l 0,15.834 -24.277,0 0,-14.616 c 0,-4.804 0.275,-6.157 5.878,-6.157 l 0.411,0 0,-2.099 C 17.496,-1.962 13.874,-1.895 10.251,-1.895 7.176,-1.895 3.691,-2.03 0,-2.166 L 0,0 Z"
       style="fill:#231f20;fill-opacity:1;fill-rule:nonzero;stroke:none"
       id="path38" /></g><g
     id="g40"
     transform="matrix(0.61352762,0,0,-0.61352762,155.15516,34.821289)"><path
       inkscape:connector-curvature="0"
       d="m 0,0 c 0,-13.669 7.314,-22.736 16.95,-22.736 8.885,0 15.036,7.173 15.036,20.639 0,13.668 -7.448,22.939 -16.881,22.939 C 5.947,20.842 0,13.466 0,0 m -1.502,-19.827 c -5.536,4.805 -7.93,10.354 -7.93,18.203 0,6.294 1.984,11.978 5.673,16.308 5.058,5.887 11.894,8.865 20.709,8.865 6.425,0 12.029,-1.895 16.54,-5.82 5.536,-4.804 7.928,-10.353 7.928,-18.203 0,-6.293 -1.981,-11.977 -5.672,-16.308 -5.059,-5.886 -11.892,-8.864 -20.71,-8.864 -6.424,0 -12.027,1.895 -16.538,5.819"
       style="fill:#231f20;fill-opacity:1;fill-rule:nonzero;stroke:none"
       id="path42" /></g><g
     id="g44"
     transform="matrix(0.61352762,0,0,-0.61352762,183.71414,20.955259)"><path
       inkscape:connector-curvature="0"
       d="m 0,0 c 3.348,-0.203 6.904,-0.337 10.39,-0.337 3.143,0 6.765,0.134 10.319,0.337 l 0,-2.164 -0.752,0 c -4.648,0 -4.988,-1.421 -4.988,-6.294 l 0,-21.856 c 0,-9.88 4.031,-14.509 12.71,-14.509 5.126,0 9.296,2.057 11.278,5.576 1.571,2.843 1.847,5.955 1.847,9.812 l 0,19.15 c 0,6.158 -0.48,8.121 -5.264,8.121 l -1.026,0 0,2.164 c 1.914,-0.067 4.238,-0.203 6.767,-0.203 2.802,0 5.809,0.203 9.088,0.272 l 0,-2.233 -0.955,0 c -4.238,0 -4.579,-1.896 -4.579,-8.121 l 0,-17.458 c 0,-6.564 -0.547,-11.165 -4.238,-15.225 -3.552,-3.925 -8.542,-5.278 -15.923,-5.278 -12.85,0 -18.523,5.886 -18.523,18.202 l 0,20.436 C 6.151,-3.45 6.015,-2.3 0,-2.164 L 0,0 Z"
       style="fill:#231f20;fill-opacity:1;fill-rule:nonzero;stroke:none"
       id="path46" /></g><g
     id="g48"
     transform="matrix(0.61352762,0,0,-0.61352762,218.20053,42.418539)"><path
       inkscape:connector-curvature="0"
       d="m 0,0 1.774,0.338 c 1.847,-7.376 4.922,-10.759 10.732,-10.759 4.99,0 8.269,3.18 8.269,8.255 0,2.301 -0.887,4.264 -2.391,5.617 -2.802,2.504 -5.946,3.653 -8.339,5.075 -5.876,3.518 -8.885,7.037 -8.885,13.398 0,8.256 5.946,14.008 14.9,14.008 2.119,0 5.332,-0.406 9.431,-1.083 l 0.683,-9.541 -1.777,-0.407 c -1.23,5.684 -3.895,8.324 -8.474,8.324 -4.444,0 -7.928,-3.452 -7.928,-7.917 0,-2.369 0.753,-4.264 2.255,-5.752 2.256,-2.301 5.194,-3.384 7.929,-4.872 6.561,-3.518 10.047,-6.97 10.047,-13.33 0,-8.595 -6.357,-14.617 -16.13,-14.617 -3.896,0 -7.244,1.082 -11.072,3.045 L 0,0 Z"
       style="fill:#231f20;fill-opacity:1;fill-rule:nonzero;stroke:none"
       id="path50" /></g><g
     id="g52"
     transform="matrix(0.61352762,0,0,-0.61352762,239.98076,48.646029)"><path
       inkscape:connector-curvature="0"
       d="m 0,0 c 5.331,0 6.016,0.812 6.016,4.872 l 0,32.751 c 0,4.331 -0.138,5.347 -5.47,5.347 L 0,42.97 0,45.134 C 2.87,45.134 6.198,45 10.163,45 c 3.486,0 7.088,0.134 10.847,0.134 l 0,-2.164 -0.89,0 c -4.646,0 -5.399,-1.083 -5.399,-5.55 l 0,-31.601 C 14.721,1.083 15.063,0 21.01,0 l 0,-2.166 c -3.281,0 -6.562,0.271 -9.979,0.271 C 7.749,-1.895 4.169,-2.166 0,-2.166 L 0,0 Z"
       style="fill:#231f20;fill-opacity:1;fill-rule:nonzero;stroke:none"
       id="path54" /></g><g
     id="g56"
     transform="matrix(0.61352762,0,0,-0.61352762,256.00678,48.646029)"><path
       inkscape:connector-curvature="0"
       d="m 0,0 c 5.33,0 6.015,0.812 6.015,4.872 l 0,32.751 c 0,4.331 -0.137,5.347 -5.467,5.347 L 0,42.97 0,45.134 C 3.759,45.134 9.541,45 16.922,45 c 10.048,0 16.103,0.134 17.743,0.134 l 0,-10.217 -1.776,-0.406 c -0.617,6.766 -3.077,7.714 -10.185,7.714 l -7.873,0 0,-17.932 5.851,0 c 5.672,0 7.628,0.541 7.628,5.616 l 0,0.271 2.051,0 c -0.138,-2.909 -0.276,-5.346 -0.276,-7.511 0,-2.03 0.069,-4.602 0.208,-7.647 l -1.847,-0.406 c -0.136,5.684 -1.751,6.293 -7.627,6.293 l -5.988,0 0,-13.939 c 0,-5.346 1.518,-6.226 8.011,-6.226 8.817,0 12.439,0.812 14.353,8.188 l 1.912,-0.541 -2.529,-10.76 c -6.628,0.203 -12.207,0.203 -16.443,0.203 l -8.106,0 -5.946,0 c -2.255,0 -4.305,0 -6.083,-0.203 L 0,0 Z"
       style="fill:#231f20;fill-opacity:1;fill-rule:nonzero;stroke:none"
       id="path58" /></g><g
     id="g60"
     transform="matrix(0.61352762,0,0,-0.61352762,20.165278,66.366179)"><path
       inkscape:connector-curvature="0"
       d="m 0,0 c 3.316,-0.204 6.834,-0.339 10.287,-0.339 3.111,0 6.698,0.135 10.217,0.339 l 0,-2.166 -0.744,0 c -4.601,0 -4.94,-1.42 -4.94,-6.293 l 0,-21.857 c 0,-9.88 3.816,-14.507 12.41,-14.507 5.075,0 9.026,2.057 10.989,5.574 1.556,2.844 1.827,5.955 1.827,9.813 l 0,19.15 c 0,6.157 -0.473,8.12 -5.211,8.12 l -1.015,0 0,2.166 c 1.895,-0.069 4.196,-0.204 6.7,-0.204 2.774,0 5.751,0.204 8.999,0.272 l 0,-2.234 -0.947,0 c -4.196,0 -4.534,-1.894 -4.534,-8.12 l 0,-17.459 c 0,-6.563 -0.54,-11.165 -4.195,-15.225 -3.519,-3.923 -8.282,-5.279 -15.59,-5.279 -12.722,0 -18.163,5.889 -18.163,18.204 l 0,20.435 c 0,6.158 -0.134,7.308 -6.09,7.444 L 0,0 Z"
       style="fill:#231f20;fill-opacity:1;fill-rule:nonzero;stroke:none"
       id="path62" /></g><g
     id="g64"
     transform="matrix(0.61352762,0,0,-0.61352762,53.674138,94.057259)"><path
       inkscape:connector-curvature="0"
       d="m 0,0 0.812,0 c 5.21,0 6.225,2.774 6.225,10.42 l 0,25.714 c 0,4.737 -0.88,6.09 -6.766,6.835 l 0,2.165 c 1.421,0 3.72,-0.134 7.037,-0.134 3.519,0 6.496,0.134 6.496,0.134 l 26.795,-33.902 0,24.158 c 0,5.954 -1.488,7.579 -6.902,7.579 l -0.338,0 0,2.165 c 1.827,0 3.993,-0.134 6.63,-0.134 4.332,0 7.85,0.134 10.693,0.134 l 0,-2.165 -0.61,0 c -5.21,0 -6.157,-2.368 -6.157,-9.676 l 0,-36.745 -2.436,0 -31.125,39.112 0,-25.24 C 10.354,2.774 10.894,0 16.172,0 l 1.422,0 0,-2.166 c -2.233,0 -5.076,0.202 -8.391,0.202 C 5.955,-1.964 2.91,-2.166 0,-2.166 L 0,0 Z"
       style="fill:#231f20;fill-opacity:1;fill-rule:nonzero;stroke:none"
       id="path66" /></g><g
     id="g68"
     transform="matrix(0.61352762,0,0,-0.61352762,87.745288,94.057259)"><path
       inkscape:connector-curvature="0"
       d="m 0,0 c 5.278,0 5.955,0.811 5.955,4.871 l 0,32.752 c 0,4.331 -0.135,5.346 -5.413,5.346 l -0.542,0 0,2.165 C 2.842,45.134 6.226,45 10.151,45 c 3.451,0 6.311,0.134 10.033,0.134 l 0,-2.165 -0.616,0 c -4.601,0 -4.993,-1.084 -4.993,-5.549 l 0,-31.602 C 14.575,1.081 14.914,0 20.801,0 l 0,-2.166 c -3.248,0 -6.321,0.27 -9.703,0.27 -3.248,0 -6.97,-0.27 -11.098,-0.27 L 0,0 Z"
       style="fill:#231f20;fill-opacity:1;fill-rule:nonzero;stroke:none"
       id="path70" /></g><g
     id="g72"
     transform="matrix(0.61352762,0,0,-0.61352762,115.47717,95.884719)"><path
       inkscape:connector-curvature="0"
       d="m 0,0 -16.444,42.226 c -1.333,3.293 -3.503,3.522 -5.59,3.721 l 0,2.166 c 2.91,0 5.184,-0.135 7.62,-0.135 5.347,0 9.271,0.135 11.978,0.135 l 0,-2.166 -0.976,0 c -2.687,0 -3.694,-0.61 -3.694,-1.827 0,-1.083 0.406,-2.098 0.745,-3.045 l 10.352,-28.962 10.49,28.76 c 0.407,1.081 0.608,1.961 0.608,2.637 0,1.896 -1.624,2.369 -5.413,2.437 l 0,2.166 c 1.895,0 3.789,-0.135 5.616,-0.135 1.692,0 4.562,0.135 8.556,0.135 l 0,-2.166 c -2.171,0 -4.089,-1.489 -5.307,-4.534 L 2.504,0 0,0 Z"
       style="fill:#231f20;fill-opacity:1;fill-rule:nonzero;stroke:none"
       id="path74" /></g><g
     id="g76"
     transform="matrix(0.61352762,0,0,-0.61352762,131.49362,94.057259)"><path
       inkscape:connector-curvature="0"
       d="m 0,0 c 5.278,0 5.954,0.811 5.954,4.871 l 0,32.752 c 0,4.331 -0.689,5.346 -4.354,5.346 l -0.894,0 0,2.165 C 4.428,45.134 9.271,45 16.579,45 c 9.947,0 15.767,0.134 17.391,0.134 l 0,-10.218 -1.758,-0.406 c -0.61,6.766 -3.045,7.714 -10.084,7.714 l -7.442,0 0,-17.931 5.615,0 c 5.616,0 7.375,0.541 7.375,5.615 l 0,0.272 2.031,0 c -0.137,-2.911 -0.271,-5.346 -0.271,-7.512 0,-2.029 0.067,-4.603 0.204,-7.647 l -1.828,-0.406 c -0.136,5.685 -1.556,6.293 -7.375,6.293 l -5.751,0 0,-13.938 c 0,-5.346 1.148,-6.226 7.578,-6.226 8.729,0 12.315,0.812 14.211,8.188 L 38.369,8.39 35.866,-2.371 c -6.565,0.205 -11.911,0.205 -16.106,0.205 l -7.85,0 -5.887,0 c -2.233,0 -4.264,0 -6.023,-0.205 L 0,0 Z"
       style="fill:#231f20;fill-opacity:1;fill-rule:nonzero;stroke:none"
       id="path78" /></g><g
     id="g80"
     transform="matrix(0.61352762,0,0,-0.61352762,169.28305,80.648369)"><path
       inkscape:connector-curvature="0"
       d="m 0,0 c 7.715,0 11.369,3.316 11.369,10.219 0,7.104 -3.723,10.555 -11.302,10.555 -0.745,0 -1.998,0 -2.808,-0.067 l 0,-20.639 C -1.931,0 -0.745,0 0,0 m -17.339,-21.855 c 5.278,0 5.956,0.81 5.956,5.548 l 0,32.074 c 0,4.332 -0.136,5.346 -5.413,5.346 l -0.543,0 0,2.166 c 3.859,-0.135 7.039,-0.135 9.542,-0.135 4.128,0 8,0.203 10.978,0.203 11.164,0 17.256,-4.739 17.256,-12.047 0,-5.75 -3.318,-9.878 -9.474,-11.976 8.39,-14.008 13.263,-21.316 17.118,-21.316 l 0.961,0 0,-2.029 c -1.825,0.135 -4.276,0.202 -6.577,0.202 -1.894,0 -3.971,-0.067 -6.474,-0.202 -5.279,7.578 -9.679,14.75 -13.263,21.585 l -5.469,0 0,-13.871 c 0,-4.738 0.743,-5.548 6.294,-5.548 l 0,-2.166 c -3.588,0.202 -7.086,0.269 -10.74,0.269 -3.519,0 -6.971,-0.067 -10.152,-0.269 l 0,2.166 z"
       style="fill:#231f20;fill-opacity:1;fill-rule:nonzero;stroke:none"
       id="path82" /></g><g
     id="g84"
     transform="matrix(0.61352762,0,0,-0.61352762,188.99502,87.830329)"><path
       inkscape:connector-curvature="0"
       d="m 0,0 1.759,0.339 c 1.827,-7.377 4.872,-10.76 10.625,-10.76 4.94,0 8.188,3.181 8.188,8.255 0,2.301 -0.881,4.263 -2.37,5.617 -2.775,2.504 -5.886,3.654 -8.255,5.074 -5.819,3.52 -8.799,7.039 -8.799,13.4 0,8.255 5.889,14.007 14.753,14.007 2.098,0 5.279,-0.406 9.339,-1.082 l 0.676,-9.543 -1.759,-0.406 c -1.219,5.685 -3.856,8.325 -8.39,8.325 -4.4,0 -7.85,-3.453 -7.85,-7.919 0,-2.368 0.745,-4.262 2.232,-5.75 2.235,-2.301 5.144,-3.385 7.85,-4.872 6.495,-3.52 9.948,-6.971 9.948,-13.331 0,-8.594 -6.294,-14.618 -15.969,-14.618 -3.859,0 -7.175,1.084 -10.964,3.045 L 0,0 Z"
       style="fill:#231f20;fill-opacity:1;fill-rule:nonzero;stroke:none"
       id="path86" /></g><g
     id="g88"
     transform="matrix(0.61352762,0,0,-0.61352762,210.18393,94.057259)"><path
       inkscape:connector-curvature="0"
       d="m 0,0 c 5.277,0 5.954,0.811 5.954,4.871 l 0,32.752 c 0,4.331 -0.135,5.346 -5.413,5.346 l -0.541,0 0,2.165 C 2.842,45.134 6.135,45 10.063,45 c 3.451,0 7.016,0.134 10.738,0.134 l 0,-2.165 -0.879,0 c -4.602,0 -5.347,-1.084 -5.347,-5.549 l 0,-31.602 C 14.575,1.081 14.914,0 20.801,0 l 0,-2.166 c -3.248,0 -6.407,0.27 -9.791,0.27 -3.248,0 -6.882,-0.27 -11.01,-0.27 L 0,0 Z"
       style="fill:#231f20;fill-opacity:1;fill-rule:nonzero;stroke:none"
       id="path90" /></g><g
     id="g92"
     transform="matrix(0.61352762,0,0,-0.61352762,231.29247,94.057259)"><path
       inkscape:connector-curvature="0"
       d="M 0,0 0.608,0 C 6.09,0 6.496,1.081 6.496,6.495 l 0,35.459 -6.794,0 c -5.28,0 -7.239,-0.949 -8.39,-6.632 l -1.895,0.135 c 0.54,3.316 0.946,7.106 1.218,11.368 l 1.623,0 c 0.34,-1.623 1.692,-1.691 4.128,-1.691 l 29.624,0 c 2.097,0 3.452,0 4.129,1.895 l 1.488,-0.474 C 31.154,42.224 30.883,38.637 30.748,35.863 l -2.031,-0.676 c -0.135,5.481 -1.421,6.767 -6.089,6.767 l -7.336,0 0,-35.459 C 15.292,1.081 15.698,0 21.789,0 l 0,-2.166 c -5.346,0 -7.445,0.338 -10.691,0.338 C 7.85,-1.828 3.789,-2.166 0,-2.166 L 0,0 Z"
       style="fill:#231f20;fill-opacity:1;fill-rule:nonzero;stroke:none"
       id="path94" /></g><g
     id="g96"
     transform="matrix(0.61352762,0,0,-0.61352762,259.51296,94.057259)"><path
       inkscape:connector-curvature="0"
       d="m 0,0 0.678,0 c 5.076,0 5.819,1.081 5.819,6.428 l 0,13.127 -11.558,18.406 c -1.961,3.044 -2.839,5.008 -6.222,5.008 l 0,2.165 c 2.368,0 4.667,-0.134 10.486,-0.134 3.248,0 6.225,0.134 8.796,0.134 l 0,-2.165 -1.217,0 c -2.166,0 -3.248,-0.474 -3.248,-1.558 0,-0.743 0.474,-1.556 1.217,-2.57 l 8.242,-14.21 7.862,12.517 c 1.082,1.625 1.962,2.775 1.962,3.857 0,1.219 -1.691,1.828 -5.144,1.964 l 0,2.165 C 21.192,45.065 24.171,45 26.676,45 c 2.503,0 3.028,0.134 5.466,0.134 l 0,-2.165 c -3.724,-0.204 -4.519,-2.166 -7.295,-6.226 l -9.553,-14.819 0,-15.429 C 15.294,1.081 15.97,0 21.79,0 l 0,-2.166 C 18.068,-2.03 14.683,-1.964 11.1,-1.964 7.513,-1.964 3.857,-2.166 0,-2.166 L 0,0 Z"
       style="fill:#231f20;fill-opacity:1;fill-rule:nonzero;stroke:none"
       id="path98" /></g></svg>