<?xml version="1.0" encoding="UTF-8" standalone="no"?>
<svg
   xmlns:dc="http://purl.org/dc/elements/1.1/"
   xmlns:cc="http://creativecommons.org/ns#"
   xmlns:rdf="http://www.w3.org/1999/02/22-rdf-syntax-ns#"
   xmlns:svg="http://www.w3.org/2000/svg"
   xmlns="http://www.w3.org/2000/svg"
   xmlns:xlink="http://www.w3.org/1999/xlink"
   xmlns:sodipodi="http://sodipodi.sourceforge.net/DTD/sodipodi-0.dtd"
   xmlns:inkscape="http://www.inkscape.org/namespaces/inkscape"
   width="113.70538"
   height="198.96178"
   viewBox="0 0 113.70538 198.96178"
   version="1.1"
   id="svg22"
   sodipodi:docname="Simon-fraser_logo_from_NCAA.svg"
   inkscape:version="1.0.1 (3bc2e813f5, 2020-09-07)">
  <metadata
     id="metadata26">
    <rdf:RDF>
      <cc:Work
         rdf:about="">
        <dc:format>image/svg+xml</dc:format>
        <dc:type
           rdf:resource="http://purl.org/dc/dcmitype/StillImage" />
      </cc:Work>
    </rdf:RDF>
  </metadata>
  <sodipodi:namedview
     pagecolor="#ffffff"
     bordercolor="#666666"
     borderopacity="1"
     objecttolerance="10"
     gridtolerance="10"
     guidetolerance="10"
     inkscape:pageopacity="0"
     inkscape:pageshadow="2"
     inkscape:window-width="1917"
     inkscape:window-height="1135"
     id="namedview24"
     showgrid="false"
     inkscape:zoom="3.675"
     inkscape:cx="57"
     inkscape:cy="99.038217"
     inkscape:window-x="0"
     inkscape:window-y="27"
     inkscape:window-maximized="0"
     inkscape:current-layer="svg22" />
  <!-- Generator: Sketch 63.1 (92452) - https://sketch.com -->
  <title
     id="title2">simon-fraser</title>
  <desc
     id="desc4">Created with Sketch.</desc>
  <defs
     id="defs7">
    <polygon
       id="path-1"
       points="113.70539,0.96178344 113.70539,199.92357 0,199.92357 0,0.96178344 " />
  </defs>
  <g
     id="simon-fraser"
     stroke="none"
     stroke-width="1"
     fill="none"
     fill-rule="evenodd"
     transform="translate(-43,-0.96178344)">
    <g
       id="simon-fraser_BGL">
      <g
         id="Simon-Fraser-bgl"
         transform="translate(43)">
        <g
           id="Group-6">
          <mask
             id="mask-2"
             fill="#ffffff">
            <use
               xlink:href="#path-1"
               id="use9"
               x="0"
               y="0"
               width="100%"
               height="100%" />
          </mask>
          <g
             id="Clip-2" />
          <path
             d="m 37.788535,174.2 v 14.89936 c 0,6.90446 -3.089172,9.44714 -7.087898,10.90064 H 9.4420382 C 5.4458599,198.5465 2.3566879,196.00382 2.3566879,189.09936 V 176.19873 H 16.892994 v 11.0828 l 0.90828,0.90955 h 4.542675 l 0.909554,-0.90955 v -9.99236 l -0.819108,-1.27261 -14.989809,-6.72229 c -4.4509554,-1.99873 -5.0878981,-5.0879 -5.0878981,-9.99363 v -13.80765 c 0,-6.90446 3.089172,-9.44968 7.0853503,-10.90318 H 30.700637 c 3.998726,1.4535 7.087898,3.99872 7.087898,10.90318 v 12.17198 H 23.253503 v -10.35542 l -0.909554,-0.90828 h -4.542675 l -0.90828,0.90828 v 9.53886 l 1.180891,1.4535 14.625478,5.90446 c 4.452229,1.81783 5.089172,5.0879 5.089172,9.99363"
             id="Fill-1"
             fill="#d82239"
             mask="url(#mask-2)" />
          <polyline
             id="Fill-3"
             fill="#d82239"
             mask="url(#mask-2)"
             points="56.7719745 174.563057 56.7719745 200 42.2369427 200 42.2369427 134.589809 72.2165605 134.589809 72.2165605 148.217834 56.7719745 148.217834 56.7719745 160.936306 71.3082803 160.936306 71.3082803 174.563057 56.7719745 174.563057" />
          <path
             d="m 90.922293,187.28153 0.909554,0.90955 h 3.631847 l 0.90828,-0.90955 v -52.69172 h 14.536306 v 54.50955 c 0,6.90446 -3.0879,9.44714 -7.08662,10.90064 H 83.471338 c -3.994905,-1.4535 -7.084077,-3.99618 -7.084077,-10.90064 v -54.50955 h 14.535032 v 52.69172"
             id="Fill-4"
             fill="#d82239"
             mask="url(#mask-2)" />
          <path
             d="M 56.853503,0.96178344 11.033121,25.044586 c -3.1121019,1.636943 -5.2560509,4.659873 -5.7707006,8.138853 l -5.23312104,35.36051 c -0.05732484,0.387261 -0.03184713,0.780892 0.07388535,1.156688 L 10.834395,107.93503 c 1.182166,4.21402 4.747771,7.32866 9.084076,7.93249 l 35.412739,4.93758 c 1.008917,0.1414 2.033121,0.1414 3.042038,0 l 35.414013,-4.93758 c 4.335032,-0.60383 7.900639,-3.71847 9.084079,-7.93249 l 10.73121,-38.234393 c 0.10573,-0.375796 0.12993,-0.769427 0.0726,-1.156688 l -5.23185,-35.36051 c -0.51465,-3.47898 -2.6586,-6.50191 -5.7707,-8.138853 L 56.853503,0.96178344"
             id="Fill-5"
             fill="#d82239"
             mask="url(#mask-2)" />
        </g>
        <path
           d="m 87.779618,80.138853 3.042038,-3.983439 C 90.933758,76.011465 90.854777,75.8 90.676433,75.76051 L 70.421656,71.370701 c -0.295541,-0.06497 -0.304458,-0.484077 -0.01274,-0.56051 l 19.810191,-5.2 c 0.173249,-0.04459 0.244586,-0.250955 0.136306,-0.392357 l -2.569427,-3.363057 c -0.05223,-0.07006 -0.06624,-0.161783 -0.03312,-0.242038 l 5.329936,-13.565605 c 0.05478,-0.138854 -0.02293,-0.294268 -0.169426,-0.332484 l -8.4,-2.205096 c -0.103185,-0.02675 -0.178344,-0.115923 -0.185988,-0.221656 L 83.923567,40.050955 C 83.90828,39.857325 83.687898,39.75414 83.529936,39.866242 L 67.844586,51 c -0.233121,0.165605 -0.538853,-0.07388 -0.434395,-0.340127 L 73.882802,34.189809 C 73.956688,34 73.784713,33.805095 73.587261,33.857325 l -5.824204,1.528662 c -0.09682,0.02548 -0.2,-0.01019 -0.261146,-0.09045 L 57.082802,21.650955 c -0.115923,-0.150318 -0.343949,-0.150318 -0.458598,0 L 46.202548,35.295541 c -0.05987,0.08026 -0.164331,0.115924 -0.261147,0.09045 L 40.117198,33.857325 C 39.921019,33.805095 39.747771,34 39.82293,34.189809 l 6.472611,16.470064 C 46.4,50.926115 46.092994,51.165605 45.861146,51 L 30.174522,39.866242 c -0.157962,-0.112102 -0.378344,-0.0089 -0.392356,0.184713 l -0.405096,5.236943 c -0.0064,0.105733 -0.08153,0.194904 -0.184713,0.221656 l -8.401274,2.205096 c -0.145223,0.03822 -0.224204,0.19363 -0.169427,0.332484 l 5.33121,13.565605 c 0.03185,0.08026 0.02038,0.171974 -0.03312,0.242038 l -2.569427,3.363057 c -0.10828,0.141402 -0.03694,0.347771 0.135032,0.392357 l 19.810191,5.2 c 0.294268,0.07643 0.284077,0.495542 -0.01274,0.56051 L 23.029299,75.76051 C 22.849681,75.8 22.771974,76.011465 22.884076,76.155414 l 3.040765,3.983439 c 0.06879,0.09045 0.06879,0.214013 0,0.303185 l -4.342675,5.686624 c -0.108281,0.141402 -0.03694,0.347771 0.136305,0.392357 l 8.522293,2.236943 c 0.143949,0.03822 0.224204,0.19363 0.169427,0.333758 l -2.989809,7.605095 c -0.07389,0.189809 0.09809,0.384714 0.296815,0.332484 l 24.784714,-6.504458 c 1.036943,-0.272612 2.034395,0.555414 1.957962,1.625477 l -0.672612,10.267512 c -0.01019,0.16688 0.121019,0.30956 0.287898,0.30956 h 5.55414 c 0.166879,0 0.299363,-0.14268 0.287898,-0.30956 L 59.24586,92.150318 c -0.07771,-1.070063 0.919745,-1.898089 1.957962,-1.625477 l 24.784713,6.504458 c 0.197452,0.05223 0.370701,-0.142675 0.295541,-0.332484 L 83.295541,89.09172 c -0.05478,-0.140128 0.0242,-0.295542 0.168153,-0.333758 l 8.523567,-2.236943 c 0.173249,-0.04459 0.243312,-0.250955 0.135032,-0.392357 l -4.342675,-5.686624 c -0.06879,-0.08917 -0.06879,-0.212739 0,-0.303185"
           id="Fill-7"
           fill="#fffffe" />
      </g>
    </g>
  </g>
</svg>
